<svg width="200" height="200" xmlns="http://www.w3.org/2000/svg">
 <!-- Created with Method Draw - http://github.com/duopixel/Method-Draw/ -->

 <g>
  <title>background</title>
  <rect fill="none" id="canvas_background" height="202" width="202" y="-1" x="-1"/>
  <g display="none" overflow="visible" y="0" x="0" height="100%" width="100%" id="canvasGrid">
   <rect fill="url(#gridpattern)" stroke-width="0" y="0" x="0" height="100%" width="100%"/>
  </g>
 </g>
 <g>
  <title>Layer 1</title>
  <rect id="svg_1" height="144.6148" width="178.84543" y="25.0003" x="10.57729" stroke-width="1.5" stroke="#e5e5e5" fill="#191919"/>
  <g fill="none" id="svg_9">
   <path id="svg_5" fill="#4285f4" d="m129.36745,65.07801c0,-2.03656 -0.16513,-4.08413 -0.5174,-6.08767l-28.25866,0l0,11.53684l16.1824,0c-0.67151,3.72085 -2.82917,7.01237 -5.98859,9.10398l0,7.48574l9.6544,0c5.66934,-5.218 8.92784,-12.9239 8.92784,-22.03889z"/>
   <path id="svg_6" fill="#34a853" d="m100.59139,94.34944c8.08019,0 14.89441,-2.65303 19.85922,-7.23254l-9.6544,-7.48574c-2.68606,1.8274 -6.15372,2.86219 -10.19381,2.86219c-7.81599,0 -14.44307,-5.27304 -16.82089,-12.36247l-9.96264,0l0,7.71691c5.0859,10.11675 15.44484,16.50165 26.77252,16.50165z"/>
   <path id="svg_7" fill="#fbbc04" d="m83.7705,70.13088c-1.25496,-3.72085 -1.25496,-7.74994 0,-11.47079l0,-7.71691l-9.95163,0c-4.24926,8.46549 -4.24926,18.43913 0,26.90462l9.95163,-7.71691z"/>
   <path id="svg_8" fill="#ea4335" d="m100.59139,46.28661c4.27127,-0.06605 8.39944,1.54118 11.49281,4.49144l8.55356,-8.55356c-5.41615,-5.0859 -12.60466,-7.88204 -20.04636,-7.79397c-11.32768,0 -21.68662,6.38489 -26.77252,16.51265l9.95163,7.71691c2.36681,-7.10044 9.0049,-12.37348 16.82089,-12.37348z"/>
  </g>
  <rect id="svg_10" height="29.23065" width="135.38408" y="103.46152" x="32.30795" stroke-width="1.5" fill="#7f7f7f"/>
  <rect id="svg_11" height="12.30764" width="32.30756" y="145.38443" x="105.7692" stroke-width="1.5" fill="#1a73e8"/>
  <rect id="svg_12" height="12.30764" width="32.30756" y="145" x="149.23056" stroke-width="1.5" fill="#1a73e8"/>
 </g>
</svg>