<svg width="200.00000000000003" height="200.00000000000003" xmlns="http://www.w3.org/2000/svg">
 <!-- Created with Method Draw - http://github.com/duopixel/Method-Draw/ -->

 <g>
  <title>background</title>
  <rect fill="none" id="canvas_background" height="202" width="202" y="-1" x="-1"/>
  <g display="none" id="canvasGrid">
   <rect fill="url(#gridpattern)" stroke-width="0" y="0" x="0" height="100%" width="100%" id="svg_2"/>
  </g>
 </g>
 <g>
  <title>Layer 1</title>
  <rect id="svg_1" height="170" width="198" y="15" x="1" stroke-width="1.5" stroke="#000" fill="#ffffff"/>
  <rect id="svg_11" height="21" width="38" y="145.38443" x="93" stroke-width="1.5" fill="#1a73e8"/>
  <rect id="svg_12" height="21" width="38" y="145" x="144.23056" stroke-width="1.5" fill="#1a73e8"/>
  <g fill="none" id="svg_15">
   <path id="svg_3" fill="#ffffff" d="m141.36756,78.17614c0,-2.86874 -0.23261,-5.75298 -0.72882,-8.57521l-39.80569,0l0,16.25102l22.79484,0c-0.9459,5.24126 -3.98522,9.87776 -8.43564,12.82404l0,10.54456l13.59937,0c7.98594,-7.35018 12.57593,-18.20486 12.57593,-31.04441l0.00001,0z" stroke="#ffffff" stroke-width="0"/>
   <path id="svg_4" fill="#ffffff" d="m100.83304,119.40844c11.38191,0 20.98055,-3.73711 27.97408,-10.1879l-13.59937,-10.54456c-3.78364,2.57411 -8.66825,4.03174 -14.3592,4.03174c-11.00975,0 -20.34479,-7.42771 -23.69423,-17.41401l-14.03357,0l0,10.87019c7.1641,14.25065 21.7559,23.24454 37.71229,23.24454z" stroke="#ffffff" stroke-width="0"/>
   <path id="svg_13" fill="#ffffff" d="m77.13881,85.29371c-1.76776,-5.24126 -1.76776,-10.91672 0,-16.15798l0,-10.87019l-14.01806,0c-5.98559,11.92465 -5.98559,25.97371 0,37.89837l14.01806,-10.87019l0,-0.00001z" stroke="#ffffff" stroke-width="0"/>
   <path id="svg_14" fill="#ffffff" d="m100.83304,51.70621c6.01659,-0.09304 11.83161,2.17094 16.18899,6.32673l12.04871,-12.04871c-7.62929,-7.1641 -17.75517,-11.10279 -28.23769,-10.97874c-15.95639,0 -30.54819,8.99388 -37.71229,23.26004l14.01806,10.87019c3.33393,-10.00182 12.68448,-17.42952 23.69423,-17.42952l-0.00001,0.00001z" stroke="#ffffff" stroke-width="0"/>
  </g>
  <g fill="none" id="svg_9">
   <path id="svg_5" fill="#4285f4" d="m144.84335,77.57365c0,-3.10971 -0.25214,-6.23623 -0.79004,-9.29552l-43.14932,0l0,17.61607l24.70957,0c-1.02536,5.68152 -4.31997,10.70748 -9.14423,13.90124l0,11.43028l14.7417,0c8.65675,-7.96758 13.63229,-19.73404 13.63229,-33.6521l0.00001,0l0.00001,0.00001z" stroke="#ffffff" stroke-width="0"/>
   <path id="svg_6" fill="#34a853" d="m100.90399,122.2694c12.33798,0 22.74289,-4.05102 30.32387,-11.04367l-14.7417,-11.43028c-4.10146,2.79034 -9.39637,4.3704 -15.56536,4.3704c-11.93456,0 -22.05372,-8.05162 -25.68452,-18.87677l-15.21237,0l0,11.78328c7.76587,15.44768 23.58336,25.19705 40.88007,25.19705z" stroke="#ffffff" stroke-width="0"/>
   <path id="svg_7" fill="#fbbc04" d="m75.21949,85.28908c-1.91625,-5.68152 -1.91625,-11.8337 0,-17.51522l0,-11.78328l-15.19555,0c-6.48837,12.92631 -6.48837,28.15548 0,41.08179l15.19555,-11.78328l0,-0.00001z" stroke="#ffffff" stroke-width="0"/>
   <path id="svg_8" fill="#ea4335" d="m100.90399,48.88028c6.52198,-0.10085 12.82546,2.35329 17.54885,6.85817l13.06079,-13.06079c-8.27015,-7.76587 -19.24658,-12.03541 -30.60962,-11.90094c-17.29671,0 -33.11419,9.74936 -40.88007,25.21385l15.19555,11.78328c3.61398,-10.84195 13.74995,-18.89359 25.68452,-18.89359l-0.00001,0.00001z" stroke="#ffffff" stroke-width="0"/>
  </g>
 </g>
</svg>